HIERARCHY
ROOT Hips
{
	OFFSET 0.00000 0.00000 0.00000
	CHANNELS 6 Xposition Yposition Zposition Zrotation Yrotation Xrotation 
	JOINT LHipJoint
	{
		OFFSET 0 0 0
		CHANNELS 3 Zrotation Yrotation Xrotation
		JOINT LeftUpLeg
		{
			OFFSET 1.57358 -1.76629 0.73362
			CHANNELS 3 Zrotation Yrotation Xrotation
			JOINT LeftLeg
			{
				OFFSET 2.40600 -6.61045 0.00000
				CHANNELS 3 Zrotation Yrotation Xrotation
				JOINT LeftFoot
				{
					OFFSET 2.66168 -7.31291 0.00000
					CHANNELS 3 Zrotation Yrotation Xrotation
					JOINT LeftToeBase
					{
						OFFSET 0.20870 -0.57341 2.12506
						CHANNELS 3 Zrotation Yrotation Xrotation
						End Site
						{
							OFFSET 0.00000 -0.00000 1.10557
						}
					}
				}
			}
		}
	}
	JOINT RHipJoint
	{
		OFFSET 0 0 0
		CHANNELS 3 Zrotation Yrotation Xrotation
		JOINT RightUpLeg
		{
			OFFSET -1.49299 -1.76629 0.73362
			CHANNELS 3 Zrotation Yrotation Xrotation
			JOINT RightLeg
			{
				OFFSET -2.43663 -6.69460 0.00000
				CHANNELS 3 Zrotation Yrotation Xrotation
				JOINT RightFoot
				{
					OFFSET -2.62959 -7.22474 0.00000
					CHANNELS 3 Zrotation Yrotation Xrotation
					JOINT RightToeBase
					{
						OFFSET -0.25784 -0.70841 2.21862
						CHANNELS 3 Zrotation Yrotation Xrotation
						End Site
						{
							OFFSET -0.00000 -0.00000 1.16452
						}
					}
				}
			}
		}
	}
	JOINT LowerBack
	{
		OFFSET 0 0 0
		CHANNELS 3 Zrotation Yrotation Xrotation
		JOINT Spine
		{
			OFFSET -0.00034 2.12399 -0.25450
			CHANNELS 3 Zrotation Yrotation Xrotation
			JOINT Spine1
			{
				OFFSET 0.05594 2.14379 -0.03318
				CHANNELS 3 Zrotation Yrotation Xrotation
				JOINT Neck
				{
					OFFSET 0 0 0
					CHANNELS 3 Zrotation Yrotation Xrotation
					JOINT Neck1
					{
						OFFSET -0.09835 1.62725 0.24211
						CHANNELS 3 Zrotation Yrotation Xrotation
						JOINT Head
						{
							OFFSET 0.10849 1.66041 -0.22648
							CHANNELS 3 Zrotation Yrotation Xrotation
							End Site
							{
								OFFSET 0.04385 1.68267 -0.10541
							}
						}
					}
				}
				JOINT LeftShoulder
				{
					OFFSET 0 0 0
					CHANNELS 3 Zrotation Yrotation Xrotation
					JOINT LeftArm
					{
						OFFSET 3.29108 0.79398 -0.68179
						CHANNELS 3 Zrotation Yrotation Xrotation
						JOINT LeftForeArm
						{
							OFFSET 5.15310 -0.00000 -0.00000
							CHANNELS 3 Zrotation Yrotation Xrotation
							JOINT LeftHand
							{
								OFFSET 3.75138 -0.00000 -0.00000
								CHANNELS 3 Zrotation Yrotation Xrotation
								JOINT LeftFingerBase
								{
									OFFSET 0 0 0
									CHANNELS 3 Zrotation Yrotation Xrotation
									JOINT LeftHandIndex1
									{
										OFFSET 0.52917 -0.00000 0.00000
										CHANNELS 3 Zrotation Yrotation Xrotation
										End Site
										{
											OFFSET 0.42663 -0.00000 0.00000
										}
									}
								}
								JOINT LThumb
								{
									OFFSET 0 0 0
									CHANNELS 3 Zrotation Yrotation Xrotation
									End Site
									{
										OFFSET 0.43315 -0.00000 0.43315
									}
								}
							}
						}
					}
				}
				JOINT RightShoulder
				{
					OFFSET 0 0 0
					CHANNELS 3 Zrotation Yrotation Xrotation
					JOINT RightArm
					{
						OFFSET -3.07414 1.06285 -0.44338
						CHANNELS 3 Zrotation Yrotation Xrotation
						JOINT RightForeArm
						{
							OFFSET -5.29613 -0.00000 0.00000
							CHANNELS 3 Zrotation Yrotation Xrotation
							JOINT RightHand
							{
								OFFSET -3.76144 -0.00000 -0.00000
								CHANNELS 3 Zrotation Yrotation Xrotation
								JOINT RightFingerBase
								{
									OFFSET 0 0 0
									CHANNELS 3 Zrotation Yrotation Xrotation
									JOINT RightHandIndex1
									{
										OFFSET -0.74732 -0.00000 0.00000
										CHANNELS 3 Zrotation Yrotation Xrotation
										End Site
										{
											OFFSET -0.60251 -0.00000 0.00000
										}
									}
								}
								JOINT RThumb
								{
									OFFSET 0 0 0
									CHANNELS 3 Zrotation Yrotation Xrotation
									End Site
									{
										OFFSET -0.61171 -0.00000 0.61171
									}
								}
							}
						}
					}
				}
			}
		}
	}
}
MOTION
Frames: 12
Frame Time: 0.166667
0.00 0.00 0.00 0 0 0 0 0 0 -21 0 0 0 0 0 0 0 0 0 0 0 0 0 0 21 0 0 0 0 0 0 0 0 0 0 0 0 0 0 0 0 0 0 0 0 0 0 -16 0 0 21 0 0 11 0 0 0 -8 0 0 0 0 0 0 0 0 0 0 0 0 0 0 0 0 0 0 0 0 8 0 0 0 0 0 0 0 0 0 0 0 0 0 0 0 0 0
0.00 0.00 0.00 2.5623 3.5642 -0.6200 0.0000 0.0000 0.0000 -25.7136 -0.2335 8.1617 3.2870 11.1457 32.7730 -0.2305 -8.4831 3.4560 1.0267 -6.4454 -18.0824 0.0000 0.0000 0.0000 18.6403 9.2720 -20.4070 -1.1797 -6.8934 19.4000 0.0012 0.6200 0.1896 -0.0091 0.6169 -1.6951 -3.7641 -2.1620 7.3236 2.7734 -3.0889 0.0177 5.3241 -1.4438 -3.7356 -9.6089 -3.6238 -14.5424 3.7686 -3.5635 20.0340 2.4475 -2.0118 8.9310 -0.0000 0.0000 0.0000 -86.7962 -2.0265 20.9306 17.3367 -27.2996 -4.2406 -0.0000 0.0000 -1.0077 21.9396 23.8997 9.2683 -7.1250 0.0000 -0.0000 -7.9230 55.3401 -2.0204 -0.0000 0.0000 0.0000 87.4266 -6.4677 0.1684 -12.4746 20.5125 -2.2658 0.0000 0.0000 12.4630 -13.7827 10.6890 -2.6051 7.1250 -0.0000 -0.0000 9.3730 -19.0597 5.8772
0.00 0.00 0.00 0.8274 3.7840 -1.3426 0.0000 0.0000 0.0000 -22.3117 -1.0871 3.1605 5.3908 13.8108 42.4849 0.7337 -5.6269 19.1877 0.4344 -4.2293 -11.7226 0.0000 0.0000 0.0000 21.8668 9.4542 -16.6991 -1.3317 -7.3075 20.6297 -0.0002 0.5292 0.8291 -0.2447 -3.1830 8.7886 -2.3436 -2.0671 6.8323 3.2897 -2.8196 0.2903 5.0005 -1.3478 -3.2499 -9.4157 -3.8538 -14.7719 3.6388 -3.8745 19.9344 2.3286 -2.1521 8.9547 -0.0000 -0.0000 0.0000 -88.0367 -1.4874 16.8271 16.6233 -26.3585 -3.9186 -0.0000 -0.0000 6.3477 16.9220 30.8292 8.8621 -7.1250 0.0000 -0.0000 -17.2247 61.1120 -6.8760 -0.0000 -0.0000 0.0000 87.5058 -6.5174 -1.1236 -12.3445 20.3193 -2.2205 0.0000 0.0000 13.0158 -13.2667 11.3960 -2.6673 7.1250 -0.0000 -0.0000 9.7171 -18.3743 6.2491
0.00 0.00 0.00 -1.8238 4.2751 -2.3415 0.0000 0.0000 0.0000 -17.0414 -2.8728 -9.3464 10.0843 17.4570 59.7697 0.4448 -5.3237 15.6776 0.0123 -0.7157 -1.9668 0.0000 0.0000 0.0000 27.2107 8.1843 -7.9422 -1.1254 -6.7385 18.9428 -0.0341 -0.7268 -3.8332 -0.2018 -2.8923 7.9790 -0.4711 -1.8472 6.9838 4.1240 -2.3417 0.1344 4.7843 -1.1240 -3.5863 -9.8259 -3.9687 -14.9962 4.5718 -4.1328 20.4341 2.6873 -2.2102 9.2140 -0.0000 0.0000 0.0000 -89.9397 1.2772 17.5833 14.7458 -23.7908 -3.1227 -0.0000 -0.0000 5.0506 16.3220 27.3511 7.6627 -7.1250 0.0000 -0.0000 -15.5198 57.6240 -4.8750 -0.0000 0.0000 0.0000 86.6058 -5.7197 -0.5228 -12.3647 20.3494 -2.2275 0.0000 0.0000 12.9103 -12.7466 11.2871 -2.5352 7.1250 -0.0000 -0.0000 10.0833 -18.5144 6.4603
0.00 0.00 0.00 -2.3773 2.2302 -2.7536 0.0000 0.0000 0.0000 -15.6689 -2.1397 -19.4357 10.9568 17.9139 62.6412 -0.0008 -0.7274 -0.3069 0.0892 -1.9263 -5.3019 0.0000 0.0000 0.0000 29.0619 6.4252 -2.4513 -1.0926 -6.6426 18.6606 -0.1816 0.5097 -7.8823 -0.1530 -2.5207 6.9471 0.7101 -0.8384 6.8473 3.7015 -0.9227 0.2137 3.5286 -0.4409 -3.5719 -9.7214 -4.0989 -14.8830 5.2067 -4.5121 20.8363 2.8475 -2.3174 9.3723 0.0000 -0.0000 0.0000 -91.0853 3.7414 15.1612 13.4501 -21.9432 -2.6191 -0.0000 -0.0000 10.1868 16.4919 26.2923 7.4711 -7.1250 0.0000 -0.0000 -14.7335 56.6276 -4.2638 0.0000 -0.0000 0.0000 86.5054 -3.5622 2.0666 -13.3955 21.8640 -2.5987 0.0000 0.0000 10.7861 -12.1399 12.9263 -2.7549 7.1250 -0.0000 -0.0000 10.4618 -16.9040 7.0878
0.00 0.00 0.00 -4.1865 0.1188 -1.5198 0.0000 0.0000 0.0000 -13.2852 -5.9245 -27.7397 6.5945 14.9807 47.3233 0.2494 1.7303 -10.2297 0.0878 -1.9113 -5.2606 0.0000 0.0000 0.0000 31.6569 4.6699 2.6132 -1.0359 -6.4736 18.1649 -0.4723 2.1569 -12.4166 -0.0705 -1.7125 4.7117 3.6784 0.0226 7.0855 3.6661 0.4877 -0.0822 1.6846 0.2041 -4.0676 -9.6444 -4.4263 -15.1579 5.2143 -4.9306 19.9274 2.7703 -2.4909 9.1404 0.0000 -0.0000 0.0000 -92.5742 6.1663 12.2243 11.9022 -19.6578 -2.0693 -0.0000 -0.0000 10.5072 17.5386 24.0277 7.3328 -7.1250 0.0000 -0.0000 -12.5123 54.6005 -2.9862 0.0000 -0.0000 0.0000 84.9264 -0.9008 11.3884 -17.6420 27.6964 -4.3816 0.0000 0.0000 4.6061 -11.8518 11.6470 -2.4259 7.1250 -0.0000 -0.0000 10.6959 -18.2034 6.9414
0.00 0.00 0.00 -4.2933 -2.8217 0.6917 0.0000 0.0000 0.0000 -9.8713 -14.7381 -26.8583 1.3485 7.3517 20.7615 0.0898 7.5474 -12.5302 1.4590 -7.6343 -21.6086 0.0000 0.0000 0.0000 31.5445 2.3259 11.3261 -0.5163 -4.6053 12.7862 -0.5399 1.9655 -13.3426 -0.0024 -0.3148 0.8650 4.0827 1.2748 5.5801 3.4182 2.0653 0.1142 1.0721 0.9917 -2.9965 -9.3211 -4.6016 -16.6740 5.6743 -5.2089 19.8323 2.8195 -2.5205 9.4097 -0.0000 0.0000 0.0000 -93.6053 6.8359 9.4326 11.2986 -18.7445 -1.8708 -0.0000 -0.0000 13.5714 14.0501 26.3973 6.3488 -7.1250 0.0000 -0.0000 -17.2975 56.2285 -4.8660 -0.0000 0.0000 0.0000 83.0691 3.4433 16.0426 -21.6417 32.5697 -6.3919 0.0000 -0.0000 -0.0863 -13.2984 12.7887 -2.9950 7.1250 -0.0000 -0.0000 9.6672 -16.9663 6.5196
0.00 0.00 0.00 -0.7730 -1.9991 -0.1365 0.0000 0.0000 0.0000 -16.9179 -9.3921 -21.9068 1.5013 7.7393 21.9251 0.0240 -0.7336 -2.7604 0.0495 -1.4352 -3.9472 0.0000 0.0000 0.0000 27.6891 2.2379 8.4439 -3.6453 -11.6728 34.5840 -0.0474 1.1451 -3.8716 -0.1265 2.2930 -6.3160 0.8148 1.0603 5.4722 2.0673 1.5310 -0.0380 1.5490 0.7648 -3.1433 -9.9453 -4.9741 -16.1080 6.6412 -5.9245 21.3877 3.1879 -2.8162 9.9646 -0.0000 -0.0000 0.0000 -92.4620 5.5555 4.9582 9.5990 -16.1099 -1.3616 -0.0000 -0.0000 17.9543 14.1505 25.6705 6.2330 -7.1250 0.0000 -0.0000 -16.7811 55.5500 -4.4356 -0.0000 -0.0000 0.0000 85.0285 1.9740 13.3006 -21.7684 32.7143 -6.4602 0.0000 0.0000 0.3814 -14.4924 13.0667 -3.3444 7.1250 -0.0000 -0.0000 8.8419 -16.6009 6.0200
0.00 0.00 0.00 1.4155 -1.5810 -0.8032 0.0000 0.0000 0.0000 -20.6261 -6.0193 -18.3021 1.3858 7.4485 21.0509 -0.0076 -3.7824 -2.2962 0.0073 -0.5529 -1.5193 0.0000 0.0000 0.0000 23.6937 1.8415 -0.9666 -7.6040 -15.8201 51.1235 -0.3754 -0.7550 11.3337 -0.1031 -2.0708 5.7014 -1.1229 0.8257 6.0457 1.4908 1.0719 0.1724 2.0750 0.5614 -3.2620 -10.3541 -5.0011 -16.6364 6.8444 -5.8531 21.5126 3.3333 -2.7845 10.1229 0.0000 0.0000 0.0000 -92.0992 4.8702 5.4911 10.1156 -16.9203 -1.5084 -0.0000 -0.0000 16.1779 14.2592 25.1915 6.1738 -7.1250 0.0000 -0.0000 -16.4093 55.1089 -4.1555 0.0000 0.0000 0.0000 86.0117 0.6879 11.9239 -20.5242 31.2687 -5.8010 0.0000 0.0000 1.7254 -13.8750 12.7753 -3.1265 7.1250 -0.0000 -0.0000 9.2699 -16.9405 6.2496
0.00 0.00 0.00 3.7838 -1.8105 -1.5417 0.0000 0.0000 0.0000 -24.3635 -3.0832 -12.1542 1.0822 6.6120 18.5709 -0.0036 -4.5064 -3.0196 0.0084 -0.5932 -1.6300 0.0000 0.0000 0.0000 19.2302 2.4187 -13.3444 -12.7906 -18.7053 68.4740 -0.2386 -4.3973 8.7546 -0.4100 -4.1105 11.3877 -3.1674 0.5201 6.9149 0.8506 0.4768 0.5029 2.6144 0.2896 -3.3922 -10.1359 -4.6065 -16.7808 6.3546 -5.2073 21.2214 3.2094 -2.5195 9.9625 0.0000 -0.0000 0.0000 -90.3057 3.5157 12.5362 11.6701 -19.3081 -1.9919 -0.0000 -0.0000 11.7085 16.1089 26.3226 7.2977 -7.1250 0.0000 -0.0000 -15.1461 56.5779 -4.3686 0.0000 -0.0000 0.0000 86.7772 -0.1399 12.3914 -18.2858 28.5216 -4.6849 0.0000 0.0000 4.5768 -12.2145 11.5528 -2.4824 7.1250 -0.0000 -0.0000 10.4465 -18.2775 6.7565
0.00 0.00 0.00 4.6243 -1.5536 -1.6025 0.0000 0.0000 0.0000 -25.6093 -2.4820 -8.6580 1.8219 8.4848 24.1967 0.4074 -3.9023 -11.3520 0.0054 -0.4736 -1.3013 0.0000 0.0000 0.0000 16.6337 3.0874 -27.9959 -12.3947 -18.5525 67.2344 -0.0682 -3.2265 -7.1739 -0.1702 -2.6575 7.3267 -4.1976 -0.3619 7.5673 1.3916 -0.7802 0.9219 3.8867 -0.3289 -3.2137 -10.2794 -4.2383 -17.7593 5.7694 -4.4119 21.5855 3.1335 -2.2195 10.1937 -0.0000 0.0000 0.0000 -88.9620 -2.8012 15.6652 12.1556 -20.0376 -2.1553 -0.0000 -0.0000 10.4249 16.7355 27.9746 8.0285 -7.1250 0.0000 -0.0000 -15.4649 58.3197 -5.1177 -0.0000 0.0000 0.0000 87.7378 -1.6241 8.5440 -16.4427 26.1172 -3.8388 0.0000 0.0000 6.7027 -12.3497 11.6545 -2.5325 7.1250 -0.0000 -0.0000 10.3494 -18.1675 6.7171
0.00 0.00 0.00 6.1449 -47.7166 -4.7988 0.0000 0.0000 0.0000 -30.0365 -2.5282 -4.3322 1.9979 8.8616 25.3635 0.8875 -2.9693 -17.0489 0.1285 2.3105 6.3647 0.0000 0.0000 0.0000 13.9396 11.3492 -26.3946 -5.3478 -13.7651 42.3044 -0.4471 -0.7193 -12.9117 -0.0326 1.1658 -3.2052 -4.9171 -1.2763 7.1739 1.6252 -2.0458 0.4940 4.6562 -0.9409 -3.2805 -8.8533 -3.3931 -15.5904 4.4258 -3.6570 22.1975 2.5419 -1.9920 9.8758 0.0000 0.0000 0.0000 -88.3971 -3.3337 18.6865 14.2213 -23.0502 -2.9142 -0.0000 -0.0000 10.2955 18.3315 22.5243 7.2335 -7.1250 0.0000 -0.0000 -11.0583 53.2416 -2.2636 0.0000 0.0000 0.0000 89.2952 -3.7648 8.7414 -16.2602 25.8722 -3.7588 0.0000 0.0000 3.1118 -14.5507 12.3690 -3.1824 7.1250 -0.0000 -0.0000 8.8072 -17.3060 5.8586
